<svg width="202" height="202" viewBox="0 0 202 202" fill="none" xmlns="http://www.w3.org/2000/svg">
    <path d="M101 0C45.3069 0 0 45.3069 0 101C0 156.693 45.3069 202 101 202C156.693 202 202 156.693 202 101C202 45.3069 156.693 0 101 0ZM157.375 163.317C151.786 146.711 136.333 134.667 117.833 134.667H84.1667C65.6668 134.667 50.2307 146.719 44.642 163.325C27.6151 147.915 16.8333 125.72 16.8333 101C16.8333 54.5905 54.5905 16.8333 101 16.8333C147.41 16.8333 185.167 54.5905 185.167 101C185.167 125.711 174.393 147.906 157.375 163.317Z" fill="#219653"/>
    <path d="M101 42.0833C82.4076 42.0833 67.3333 57.1576 67.3333 75.75V84.1667C67.3333 102.759 82.4076 117.833 101 117.833C119.592 117.833 134.667 102.759 134.667 84.1667V75.75C134.667 57.1576 119.592 42.0833 101 42.0833Z" fill="#219653"/>
</svg>
