<svg width="72" height="72" viewBox="0 0 72 72" fill="none" xmlns="http://www.w3.org/2000/svg">
    <path d="M36 0C16.149 0 0 16.149 0 36C0 55.851 16.149 72 36 72C55.851 72 72 55.851 72 36C72 16.149 55.851 0 36 0ZM56.094 58.212C54.102 52.293 48.594 48 42 48H30C23.406 48 17.904 52.296 15.912 58.215C9.843 52.722 6 44.811 6 36C6 19.458 19.458 6 36 6C52.542 6 66 19.458 66 36C66 44.808 62.16 52.719 56.094 58.212Z" fill="#BE52F2"/>
    <path d="M36 15C29.373 15 24 20.373 24 27V30C24 36.627 29.373 42 36 42C42.6271 42 48.0001 36.627 48.0001 30V27C48.0001 20.373 42.6271 15 36 15Z" fill="#DBA5F5"/>
</svg>